<?xml version="1.0" encoding="UTF-8"?>
<svg id="Laag_1" data-name="Laag 1" xmlns="http://www.w3.org/2000/svg" viewBox="0 0 180 180">
  <defs>
    <style>
      .cls-1 {
        fill: #248a5c;
      }

      .cls-1, .cls-2, .cls-3, .cls-4 {
        stroke-width: 0px;
      }

      .cls-2 {
        fill: #143d2d;
      }

      .cls-3 {
        fill: #1f5f49;
      }

      .cls-4 {
        fill: #c0dee2;
      }
    </style>
  </defs>
  <path class="cls-4" d="M120.29,47.5c20.44.4,39.52,6.31,55.82,16.34C164.87,26.93,130.53,0,90,0,59.32,0,32.19,15.44,15.93,38.95c13.57-6.21,28.64-9.7,44.54-9.7,22.15,0,42.74,6.73,59.82,18.25Z"/>
  <path class="cls-1" d="M118.06,47.44c.75,0,1.49.04,2.23.06-17.08-11.52-37.67-18.25-59.82-18.25-15.9,0-30.97,3.49-44.54,9.7C5.9,53.47,0,71.06,0,90c0,4.1.3,8.14.84,12.1,9.85-6.05,20.5-10.93,31.75-14.44,20.35-24.57,51.08-40.22,85.48-40.22Z"/>
  <path class="cls-1" d="M165.21,113.89c3.09,2.56,6.05,5.26,8.91,8.07,3.79-9.94,5.88-20.7,5.88-31.96,0-9.1-1.37-17.88-3.89-26.16-16.29-10.03-35.38-15.93-55.82-16.34,22.59,15.23,39.03,38.85,44.92,66.39Z"/>
  <path class="cls-3" d="M165.21,113.89c-5.88-27.54-22.33-51.15-44.92-66.39-.74-.01-1.48-.06-2.23-.06-34.39,0-65.13,15.65-85.48,40.22,13.33-4.16,27.51-6.4,42.21-6.4,34.38,0,65.89,12.25,90.42,32.62Z"/>
  <path class="cls-2" d="M165.21,113.89c-24.53-20.37-56.04-32.62-90.42-32.62-14.7,0-28.88,2.24-42.21,6.4-11.25,3.51-21.9,8.39-31.75,14.44,1.43,10.6,4.71,20.62,9.51,29.72,15.08,28.62,45.12,48.18,79.66,48.18s61.91-17.88,77.58-44.45c2.54-4.32,4.74-8.86,6.54-13.59-2.86-2.81-5.82-5.51-8.91-8.07Z"/>
</svg>