<?xml version="1.0" encoding="UTF-8"?>
<svg id="Laag_1" data-name="Laag 1" xmlns="http://www.w3.org/2000/svg" viewBox="0 0 1424.2 304.17">
  <defs>
    <style>
      .cls-1 {
        fill: #1e1e1e;
      }

      .cls-1, .cls-2, .cls-3, .cls-4 {
        stroke-width: 0px;
      }

      .cls-2 {
        fill: #535051;
      }

      .cls-3 {
        fill: #949192;
      }

      .cls-4 {
        fill: #e5e4e4;
      }
    </style>
  </defs>
  <g>
    <polygon class="cls-1" points="340.19 28.01 371.56 28.01 371.56 123.4 388.85 123.4 388.85 28.01 421.18 28.01 421.18 11.36 340.19 11.36 340.19 28.01"/>
    <path class="cls-1" d="M454.79,123.4v-50.9c0-2.77.56-5.36,1.68-7.76,1.12-2.4,2.67-4.51,4.64-6.32,1.97-1.81,4.29-3.23,6.96-4.24,2.67-1.01,5.6-1.52,8.8-1.52,3.95-.21,7.25.4,9.92,1.84,2.67,1.44,4.64,3.74,5.92,6.88,1.28,3.15,1.92,7.12,1.92,11.92v50.1h16.49v-51.22c0-7.79-1.07-14.25-3.2-19.37-2.14-5.12-5.34-8.94-9.6-11.44-4.27-2.51-9.6-3.76-16-3.76-4.48,0-8.86.99-13.12,2.96-4.27,1.98-7.95,4.54-11.04,7.68-1.3,1.33-2.42,2.71-3.36,4.14V4.96h-16.49v118.44h16.49Z"/>
    <path class="cls-1" d="M597.55,100.35c-4.16,3.63-8.03,6.14-11.6,7.52-3.58,1.39-7.44,2.08-11.6,2.08-5.87,0-11.04-1.17-15.52-3.52-4.48-2.35-7.95-5.68-10.4-10-1.86-3.27-3.01-6.97-3.46-11.12h64.28l.16-7.04c.1-5.87-.78-11.28-2.64-16.24-1.87-4.96-4.54-9.26-8-12.88-3.47-3.63-7.55-6.48-12.24-8.56-4.7-2.08-9.76-3.12-15.21-3.12-6.19,0-11.92,1.1-17.21,3.28-5.28,2.19-9.82,5.28-13.6,9.28-3.79,4-6.75,8.72-8.88,14.16-2.13,5.44-3.2,11.47-3.2,18.09,0,8.32,1.89,15.68,5.68,22.09,3.79,6.4,9.01,11.44,15.68,15.12,6.67,3.68,14.32,5.52,22.97,5.52,3.95,0,7.98-.56,12.08-1.68,4.11-1.12,8-2.64,11.68-4.56,3.68-1.92,6.8-4.16,9.36-6.72l-8.32-11.68ZM556.74,55.94c3.95-2.19,8.8-3.28,14.56-3.28,3.63,0,6.99.8,10.08,2.4,3.09,1.6,5.65,3.79,7.68,6.56,2.03,2.78,3.2,5.92,3.52,9.44v1.12h-47c.51-2.43,1.23-4.65,2.19-6.64,2.03-4.21,5.01-7.42,8.96-9.6Z"/>
    <polygon class="cls-1" points="676.29 123.4 746.88 123.4 746.88 106.75 693.58 106.75 693.58 74.26 738.07 74.26 738.07 57.62 693.58 57.62 693.58 28.01 746.88 28.01 746.88 11.36 676.29 11.36 676.29 123.4"/>
    <path class="cls-1" d="M792.41,56.26c4-2.5,8.56-3.76,13.68-3.76,2.77,0,5.65.59,8.64,1.76,2.99,1.17,5.81,2.78,8.48,4.8,2.67,2.03,4.85,4.27,6.56,6.72l9.12-11.2c-3.2-5.23-7.87-9.36-14-12.4-6.14-3.04-12.94-4.56-20.41-4.56s-14.75,1.92-20.89,5.76c-6.14,3.84-10.99,9.07-14.56,15.69-3.58,6.62-5.36,14.03-5.36,22.25s1.79,15.63,5.36,22.25c3.57,6.62,8.43,11.84,14.56,15.69,6.13,3.84,13.1,5.76,20.89,5.76,6.83,0,13.42-1.55,19.77-4.64,6.35-3.09,11.23-7.04,14.64-11.84l-9.12-11.2c-2.24,2.78-4.64,5.12-7.2,7.04-2.56,1.92-5.2,3.36-7.92,4.32-2.72.96-5.52,1.44-8.4,1.44-4.91,0-9.39-1.28-13.44-3.84-4.06-2.56-7.31-6-9.76-10.32-2.46-4.32-3.68-9.2-3.68-14.64s1.17-10.35,3.52-14.72c2.35-4.37,5.52-7.81,9.52-10.32Z"/>
    <path class="cls-1" d="M868.43,119.32c6.46,3.79,13.79,5.68,22.01,5.68s15.39-1.89,21.85-5.68c6.45-3.79,11.55-8.96,15.28-15.53,3.73-6.56,5.6-14.06,5.6-22.49s-1.87-15.92-5.6-22.49c-3.74-6.56-8.83-11.74-15.28-15.53-6.46-3.79-13.74-5.68-21.85-5.68s-15.55,1.9-22.01,5.68c-6.46,3.79-11.55,8.96-15.28,15.53-3.74,6.56-5.6,14.06-5.6,22.49s1.87,15.93,5.6,22.49c3.73,6.56,8.83,11.74,15.28,15.53ZM867.55,66.66c2.24-4.32,5.36-7.73,9.36-10.24,4-2.51,8.51-3.76,13.52-3.76s9.5,1.23,13.44,3.68c3.95,2.46,7.04,5.84,9.28,10.16,2.24,4.32,3.31,9.26,3.2,14.8.1,5.44-.96,10.32-3.2,14.64s-5.34,7.74-9.28,10.24c-3.95,2.51-8.43,3.76-13.44,3.76s-9.52-1.25-13.52-3.76c-4-2.5-7.12-5.92-9.36-10.24-2.24-4.32-3.31-9.2-3.2-14.64-.11-5.44.96-10.32,3.2-14.64Z"/>
    <rect class="cls-1" x="951.42" y="4.96" width="16.49" height="118.44"/>
    <path class="cls-1" d="M1050.89,119.32c6.45-3.79,11.55-8.96,15.28-15.53,3.73-6.56,5.6-14.06,5.6-22.49s-1.87-15.92-5.6-22.49c-3.74-6.56-8.83-11.74-15.28-15.53-6.46-3.79-13.74-5.68-21.85-5.68s-15.55,1.9-22.01,5.68c-6.46,3.79-11.55,8.96-15.28,15.53-3.74,6.56-5.6,14.06-5.6,22.49s1.87,15.93,5.6,22.49c3.73,6.56,8.83,11.74,15.28,15.53,6.46,3.79,13.79,5.68,22.01,5.68s15.39-1.89,21.85-5.68ZM1006.15,95.95c-2.24-4.32-3.31-9.2-3.2-14.64-.11-5.44.96-10.32,3.2-14.64,2.24-4.32,5.36-7.73,9.36-10.24,4-2.51,8.51-3.76,13.52-3.76s9.5,1.23,13.44,3.68c3.95,2.46,7.04,5.84,9.28,10.16,2.24,4.32,3.31,9.26,3.2,14.8.1,5.44-.96,10.32-3.2,14.64s-5.34,7.74-9.28,10.24c-3.95,2.51-8.43,3.76-13.44,3.76s-9.52-1.25-13.52-3.76c-4-2.5-7.12-5.92-9.36-10.24Z"/>
    <path class="cls-1" d="M1151,134.12c-2.03,3.73-5.02,6.56-8.96,8.48-3.95,1.92-8.86,2.88-14.72,2.88-4.7,0-9.42-.75-14.17-2.24-4.75-1.5-8.72-3.47-11.92-5.92l-6.08,12.8c3.63,2.99,8.4,5.41,14.33,7.28,5.92,1.87,11.87,2.8,17.85,2.8,6.72,0,12.75-.94,18.08-2.8,5.33-1.87,9.87-4.59,13.6-8.16,3.73-3.58,6.59-7.95,8.56-13.12,1.97-5.18,2.96-11.12,2.96-17.85V39.37h-16.49v11.44c-1.08-1.36-2.36-2.67-3.84-3.91-2.03-1.71-4.32-3.28-6.88-4.72-2.56-1.44-5.34-2.56-8.32-3.36-2.99-.8-6.08-1.2-9.28-1.2-7.79,0-14.8,1.9-21.05,5.68-6.24,3.79-11.15,8.96-14.72,15.53-3.58,6.56-5.36,14.06-5.36,22.49s1.81,15.93,5.44,22.49c3.63,6.56,8.56,11.74,14.8,15.53,6.24,3.79,13.36,5.68,21.37,5.68,4.59,0,9.07-.96,13.44-2.88,4.37-1.92,8.03-4.4,10.96-7.44,1.44-1.49,2.58-3.01,3.44-4.56v10.08c0,5.55-1.01,10.19-3.04,13.92ZM1141.87,106.11c-4.06,2.46-8.7,3.68-13.92,3.68s-9.68-1.23-13.68-3.68c-4-2.45-7.15-5.84-9.44-10.16-2.3-4.32-3.44-9.2-3.44-14.64s1.15-10.32,3.44-14.64c2.29-4.32,5.44-7.73,9.44-10.24,4-2.51,8.56-3.76,13.68-3.76s9.84,1.23,13.84,3.68c4,2.46,7.15,5.84,9.44,10.16,2.29,4.32,3.44,9.26,3.44,14.8s-1.12,10.46-3.36,14.72c-2.24,4.27-5.39,7.63-9.44,10.08Z"/>
    <path class="cls-1" d="M1212.37,17.93c1.97-1.92,2.96-4.43,2.96-7.52,0-3.31-.96-5.87-2.88-7.68-1.92-1.81-4.64-2.72-8.16-2.72s-6.11.96-8.08,2.88c-1.98,1.92-2.96,4.43-2.96,7.52,0,3.31.96,5.87,2.88,7.68,1.92,1.82,4.64,2.72,8.16,2.72s6.11-.96,8.08-2.88Z"/>
    <rect class="cls-1" x="1196.29" y="39.37" width="16.49" height="84.03"/>
    <path class="cls-1" d="M1308.16,108.51l-9.12-11.2c-2.24,2.78-4.64,5.12-7.2,7.04-2.56,1.92-5.2,3.36-7.92,4.32-2.72.96-5.52,1.44-8.4,1.44-4.91,0-9.39-1.28-13.44-3.84-4.06-2.56-7.31-6-9.76-10.32-2.46-4.32-3.68-9.2-3.68-14.64s1.17-10.35,3.52-14.72c2.35-4.37,5.52-7.81,9.52-10.32,4-2.5,8.56-3.76,13.68-3.76,2.77,0,5.65.59,8.64,1.76,2.99,1.17,5.81,2.78,8.48,4.8,2.67,2.03,4.85,4.27,6.56,6.72l9.12-11.2c-3.2-5.23-7.87-9.36-14-12.4-6.14-3.04-12.94-4.56-20.41-4.56s-14.75,1.92-20.89,5.76c-6.14,3.84-10.99,9.07-14.56,15.69-3.58,6.62-5.36,14.03-5.36,22.25s1.79,15.63,5.36,22.25c3.57,6.62,8.43,11.84,14.56,15.69,6.13,3.84,13.1,5.76,20.89,5.76,6.83,0,13.42-1.55,19.77-4.64,6.35-3.09,11.23-7.04,14.64-11.84Z"/>
    <path class="cls-1" d="M1371.86,40.81c-4.7-2.13-10.24-3.2-16.64-3.2-6.72,0-12.99,1.34-18.81,4-5.82,2.67-11.23,6.72-16.25,12.16l10.72,10.72c3.09-3.95,6.53-6.88,10.32-8.8,3.79-1.92,8.03-2.88,12.72-2.88,5.12,0,9.36,1.47,12.72,4.4,3.36,2.94,5.04,6.75,5.04,11.44v3.68h-15.84c-6.19,0-11.66.59-16.41,1.76-4.75,1.18-8.7,2.88-11.84,5.12-3.15,2.24-5.52,5.07-7.12,8.48-1.6,3.42-2.4,7.36-2.4,11.84,0,5.12,1.25,9.58,3.76,13.36,2.51,3.79,5.89,6.75,10.16,8.88,4.27,2.13,9.12,3.2,14.56,3.2,4.16,0,8.16-.8,12-2.4,3.84-1.6,7.42-3.79,10.72-6.56.83-.7,1.63-1.43,2.4-2.19v9.55h14.88v-58.26c0-5.87-1.28-10.86-3.84-14.96-2.56-4.11-6.19-7.23-10.88-9.36ZM1367.46,103.39c-2.72,2.35-5.82,4.19-9.28,5.52-3.47,1.33-7.12,2-10.96,2-2.67,0-5.02-.48-7.04-1.44-2.03-.96-3.63-2.32-4.8-4.08-1.18-1.76-1.76-3.81-1.76-6.16s.43-4.19,1.28-5.84c.85-1.65,2.16-3.09,3.92-4.32,1.76-1.23,3.89-2.13,6.4-2.72,2.51-.58,5.36-.88,8.56-.88h17.93v13.4c-1.19,1.61-2.6,3.12-4.24,4.53Z"/>
    <rect class="cls-1" x="1407.71" y="4.96" width="16.49" height="118.44"/>
    <polygon class="cls-1" points="349.49 268.96 420.07 268.96 420.07 252.32 366.78 252.32 366.78 219.83 411.27 219.83 411.27 203.18 366.78 203.18 366.78 173.57 420.07 173.57 420.07 156.93 349.49 156.93 349.49 268.96"/>
    <path class="cls-1" d="M503.62,186.94c-4.27-2.51-9.6-3.76-16-3.76-4.48,0-8.86.99-13.12,2.96-4.27,1.98-7.95,4.54-11.04,7.68-1.3,1.33-2.42,2.71-3.36,4.14v-13.02h-16.49v84.03h16.49v-50.9c0-2.77.56-5.36,1.68-7.76,1.12-2.4,2.67-4.51,4.64-6.32,1.97-1.81,4.29-3.23,6.96-4.24,2.67-1.01,5.6-1.52,8.8-1.52,3.95-.21,7.25.4,9.92,1.84,2.67,1.44,4.64,3.74,5.92,6.88,1.28,3.15,1.92,7.12,1.92,11.92v50.1h16.49v-51.22c0-7.79-1.07-14.24-3.2-19.37-2.14-5.12-5.34-8.93-9.6-11.44Z"/>
    <polygon class="cls-1" points="563.47 163.49 546.99 163.49 546.99 184.93 529.54 184.93 529.54 200.94 546.99 200.94 546.99 268.96 563.47 268.96 563.47 200.94 583 200.94 583 184.93 563.47 184.93 563.47 163.49"/>
    <path class="cls-1" d="M640.3,183.17c-3.95,0-7.76.96-11.44,2.88-3.68,1.92-6.94,4.54-9.76,7.84-1.81,2.11-3.27,4.38-4.4,6.79v-15.76h-16.65v84.03h16.65v-46.41c0-3.09.58-5.95,1.76-8.56,1.17-2.61,2.75-4.91,4.72-6.88,1.97-1.97,4.27-3.52,6.88-4.64,2.61-1.12,5.36-1.68,8.24-1.68,1.49,0,3.01.19,4.56.56,1.55.38,2.96.83,4.24,1.36l4.32-17.92c-.96-.43-2.27-.8-3.92-1.12-1.66-.32-3.39-.48-5.2-.48Z"/>
    <path class="cls-1" d="M725.52,194.7c-3.47-3.63-7.55-6.48-12.24-8.56-4.7-2.08-9.76-3.12-15.21-3.12-6.19,0-11.92,1.09-17.21,3.28-5.28,2.19-9.82,5.28-13.6,9.28-3.79,4-6.75,8.72-8.88,14.17-2.13,5.44-3.2,11.47-3.2,18.08,0,8.32,1.89,15.69,5.68,22.09,3.79,6.4,9.01,11.44,15.68,15.12,6.67,3.68,14.32,5.52,22.97,5.52,3.95,0,7.98-.56,12.08-1.68,4.11-1.12,8-2.64,11.68-4.56,3.68-1.92,6.8-4.16,9.36-6.72l-8.32-11.68c-4.16,3.63-8.03,6.14-11.6,7.52-3.58,1.39-7.44,2.08-11.6,2.08-5.87,0-11.04-1.17-15.52-3.52-4.48-2.35-7.95-5.68-10.4-10-1.86-3.27-3.01-6.97-3.46-11.12h64.28l.16-7.04c.1-5.87-.78-11.28-2.64-16.25-1.87-4.96-4.54-9.26-8-12.88ZM683.51,201.5c3.95-2.19,8.8-3.28,14.56-3.28,3.63,0,6.99.8,10.08,2.4,3.09,1.6,5.65,3.79,7.68,6.56,2.03,2.78,3.2,5.92,3.52,9.44v1.12h-47c.51-2.43,1.23-4.65,2.19-6.64,2.03-4.21,5.01-7.42,8.96-9.6Z"/>
    <path class="cls-1" d="M816.51,189.1c-5.87-3.73-12.59-5.6-20.17-5.6-4.59,0-9.04.94-13.36,2.8-4.32,1.87-7.98,4.27-10.96,7.2-1.13,1.11-2.09,2.23-2.88,3.38v-11.94h-16.65v119.24h16.65v-46.2c.54.63,1.12,1.25,1.76,1.87,3.2,3.1,7.09,5.63,11.68,7.6,4.59,1.97,9.33,2.96,14.24,2.96,7.36,0,13.98-1.89,19.85-5.68,5.87-3.79,10.48-8.96,13.84-15.52,3.36-6.56,5.04-14,5.04-22.33s-1.71-15.9-5.12-22.41c-3.42-6.51-8.06-11.63-13.92-15.36ZM816.35,241.43c-2.24,4.27-5.28,7.63-9.12,10.08-3.84,2.46-8.22,3.68-13.12,3.68s-9.44-1.23-13.28-3.68c-3.84-2.45-6.88-5.81-9.12-10.08-2.24-4.27-3.36-9.12-3.36-14.56s1.12-10.3,3.36-14.56c2.24-4.27,5.28-7.6,9.12-10,3.84-2.4,8.27-3.6,13.28-3.6s9.44,1.23,13.28,3.68c3.84,2.46,6.85,5.79,9.04,10,2.19,4.22,3.28,9.04,3.28,14.48s-1.12,10.3-3.36,14.56Z"/>
    <path class="cls-1" d="M895.73,183.17c-3.95,0-7.76.96-11.44,2.88-3.68,1.92-6.94,4.54-9.76,7.84-1.81,2.11-3.27,4.38-4.4,6.79v-15.76h-16.65v84.03h16.65v-46.41c0-3.09.58-5.95,1.76-8.56,1.17-2.61,2.75-4.91,4.72-6.88,1.97-1.97,4.27-3.52,6.88-4.64,2.61-1.12,5.36-1.68,8.24-1.68,1.49,0,3.01.19,4.56.56,1.55.38,2.96.83,4.24,1.36l4.32-17.92c-.96-.43-2.27-.8-3.92-1.12-1.66-.32-3.39-.48-5.2-.48Z"/>
    <path class="cls-1" d="M980.8,194.7c-3.47-3.63-7.55-6.48-12.24-8.56-4.7-2.08-9.76-3.12-15.21-3.12-6.19,0-11.92,1.09-17.21,3.28-5.28,2.19-9.82,5.28-13.6,9.28-3.79,4-6.75,8.72-8.88,14.17-2.13,5.44-3.2,11.47-3.2,18.08,0,8.32,1.89,15.69,5.68,22.09,3.79,6.4,9.01,11.44,15.68,15.12,6.67,3.68,14.32,5.52,22.97,5.52,3.95,0,7.98-.56,12.08-1.68,4.11-1.12,8-2.64,11.68-4.56,3.68-1.92,6.8-4.16,9.36-6.72l-8.32-11.68c-4.16,3.63-8.03,6.14-11.6,7.52-3.58,1.39-7.44,2.08-11.6,2.08-5.87,0-11.04-1.17-15.52-3.52-4.48-2.35-7.95-5.68-10.4-10-1.86-3.27-3.01-6.97-3.46-11.12h64.28l.16-7.04c.1-5.87-.78-11.28-2.64-16.25-1.87-4.96-4.54-9.26-8-12.88ZM938.79,201.5c3.95-2.19,8.8-3.28,14.56-3.28,3.63,0,6.99.8,10.08,2.4,3.09,1.6,5.65,3.79,7.68,6.56,2.03,2.78,3.2,5.92,3.52,9.44v1.12h-47c.51-2.43,1.23-4.65,2.19-6.64,2.03-4.21,5.01-7.42,8.96-9.6Z"/>
    <path class="cls-1" d="M1069.39,186.94c-4.27-2.51-9.6-3.76-16-3.76-4.48,0-8.86.99-13.12,2.96-4.27,1.98-7.95,4.54-11.04,7.68-1.3,1.33-2.42,2.71-3.36,4.14v-13.02h-16.49v84.03h16.49v-50.9c0-2.77.56-5.36,1.68-7.76,1.12-2.4,2.67-4.51,4.64-6.32,1.97-1.81,4.29-3.23,6.96-4.24,2.67-1.01,5.6-1.52,8.8-1.52,3.95-.21,7.25.4,9.92,1.84,2.67,1.44,4.64,3.74,5.92,6.88,1.28,3.15,1.92,7.12,1.92,11.92v50.1h16.49v-51.22c0-7.79-1.07-14.24-3.2-19.37-2.14-5.12-5.34-8.93-9.6-11.44Z"/>
    <path class="cls-1" d="M1169.82,194.7c-3.47-3.63-7.55-6.48-12.24-8.56-4.7-2.08-9.76-3.12-15.21-3.12-6.19,0-11.92,1.09-17.21,3.28-5.28,2.19-9.82,5.28-13.6,9.28-3.79,4-6.75,8.72-8.88,14.17-2.13,5.44-3.2,11.47-3.2,18.08,0,8.32,1.89,15.69,5.68,22.09,3.79,6.4,9.01,11.44,15.68,15.12,6.67,3.68,14.32,5.52,22.97,5.52,3.95,0,7.98-.56,12.08-1.68,4.11-1.12,8-2.64,11.68-4.56,3.68-1.92,6.8-4.16,9.36-6.72l-8.32-11.68c-4.16,3.63-8.03,6.14-11.6,7.52-3.58,1.39-7.44,2.08-11.6,2.08-5.87,0-11.04-1.17-15.52-3.52-4.48-2.35-7.95-5.68-10.4-10-1.86-3.27-3.01-6.97-3.46-11.12h64.28l.16-7.04c.1-5.87-.78-11.28-2.64-16.25-1.87-4.96-4.54-9.26-8-12.88ZM1127.8,201.5c3.95-2.19,8.8-3.28,14.56-3.28,3.63,0,6.99.8,10.08,2.4,3.09,1.6,5.65,3.79,7.68,6.56,2.03,2.78,3.2,5.92,3.52,9.44v1.12h-47c.51-2.43,1.23-4.65,2.19-6.64,2.03-4.21,5.01-7.42,8.96-9.6Z"/>
    <path class="cls-1" d="M1255.68,235.51c0,2.99-.54,5.76-1.6,8.32-1.07,2.56-2.54,4.75-4.4,6.56-1.87,1.82-4.08,3.23-6.64,4.24-2.56,1.02-5.39,1.52-8.48,1.52-6.19,0-11.02-2.13-14.49-6.4-3.47-4.27-5.2-10.08-5.2-17.45v-47.38h-16.49v51.86c0,6.94,1.2,12.91,3.6,17.93,2.4,5.02,5.81,8.91,10.24,11.68,4.43,2.77,9.63,4.16,15.6,4.16,4.8,0,9.28-.94,13.44-2.8s7.76-4.4,10.8-7.6c1.39-1.46,2.58-3,3.6-4.61v13.42h16.49v-84.03h-16.49v50.58Z"/>
    <path class="cls-1" d="M1337.47,183.17c-3.95,0-7.76.96-11.44,2.88-3.68,1.92-6.94,4.54-9.76,7.84-1.81,2.11-3.27,4.38-4.4,6.79v-15.76h-16.65v84.03h16.65v-46.41c0-3.09.58-5.95,1.76-8.56,1.17-2.61,2.75-4.91,4.72-6.88,1.97-1.97,4.27-3.52,6.88-4.64,2.61-1.12,5.36-1.68,8.24-1.68,1.49,0,3.01.19,4.56.56,1.55.38,2.96.83,4.24,1.36l4.32-17.92c-.96-.43-2.27-.8-3.92-1.12-1.66-.32-3.39-.48-5.2-.48Z"/>
  </g>
  <path class="cls-4" d="M179.95,83.57c30.57.61,59.12,9.44,83.5,24.44C246.64,52.8,195.26,12.52,134.63,12.52c-45.9,0-86.48,23.1-110.79,58.27,20.29-9.29,42.84-14.51,66.62-14.51,33.14,0,63.93,10.06,89.49,27.3Z"/>
  <path class="cls-3" d="M176.61,83.49c1.12,0,2.22.06,3.34.08-25.55-17.23-56.34-27.3-89.49-27.3-23.78,0-46.33,5.22-66.62,14.51C8.82,92.5,0,118.81,0,147.15c0,6.14.45,12.17,1.25,18.1,14.74-9.04,30.66-16.35,47.49-21.6,30.44-36.75,76.42-60.16,127.86-60.16Z"/>
  <path class="cls-3" d="M247.14,182.88c4.61,3.83,9.05,7.87,13.32,12.07,5.67-14.87,8.8-30.97,8.8-47.8,0-13.61-2.05-26.75-5.82-39.14-24.38-15-52.92-23.83-83.5-24.44,33.79,22.79,58.39,58.12,67.2,99.31Z"/>
  <path class="cls-2" d="M247.14,182.88c-8.8-41.19-33.41-76.52-67.2-99.31-1.11-.02-2.22-.08-3.34-.08-51.45,0-97.42,23.41-127.86,60.16,19.94-6.22,41.15-9.57,63.14-9.57,51.42,0,98.56,18.33,135.25,48.8Z"/>
  <path class="cls-1" d="M247.14,182.88c-36.7-30.47-83.83-48.8-135.25-48.8-21.99,0-43.2,3.35-63.14,9.57-16.83,5.25-32.75,12.55-47.49,21.6,2.14,15.86,7.04,30.84,14.22,44.46,22.57,42.81,67.5,72.07,119.16,72.07s92.62-26.74,116.05-66.49c3.81-6.46,7.09-13.25,9.79-20.33-4.27-4.2-8.71-8.24-13.32-12.07Z"/>
</svg>